<?xml version="1.0" encoding="utf-8"?>
<svg version="1.1" xmlns="http://www.w3.org/2000/svg" xmlns:xlink="http://www.w3.org/1999/xlink"
	 viewBox="900 280 1240 1030">
<style type="text/css">
	.st0{fill:url(#SVGID_1_);}
	.st1{fill:url(#SVGID_2_);}
</style>
<g>
	<linearGradient id="SVGID_1_" gradientUnits="userSpaceOnUse" x1="1521.5657" y1="291.8304" x2="1521.5657" y2="1294.6868">
		<stop  offset="0" style="stop-color:#1AA15F"/>
		<stop  offset="1" style="stop-color:#2B6FDF"/>
	</linearGradient>
	<polygon class="st0" points="1522.1,316.1 924.8,911.3 992.7,911.3 1521.6,384.9 2051.3,911.3 2118.3,911.3 		"/>
	<linearGradient id="SVGID_2_" gradientUnits="userSpaceOnUse" x1="1522.2506" y1="291.8304" x2="1522.2506" y2="1294.6868">
		<stop  offset="0" style="stop-color:#1AA15F"/>
		<stop  offset="1" style="stop-color:#2B6FDF"/>
	</linearGradient>
	<path class="st1" d="M1948.8,926.2h56.7l-483.5-482.8l-482.4,482.8h54.7v317.6h-87.5v49.9h1030.8v-47.8h-88.9V926.2z
		 M1541.7,529.1L1890.6,878h-176.7l-172.3-236.5V529.1z M1665.8,878.2h-288.5l144.3-199.5L1665.8,878.2z M1502.7,529.1v111.5
		l-172.9,237.6h-176L1502.7,529.1z M1267.7,1243.6H1144v-81.9l71.2-73.5V1015c10.3-3.8,17.7-13.8,17.7-25.5
		c0-15-12.2-27.1-27.1-27.1c-15,0-27.1,12.2-27.1,27.1c0,11.8,7.6,21.9,18.2,25.6v65.6L1144,1133V927.2h123.6V1243.6z
		 M1205.8,1000.7c-6.1,0-11.1-5-11.1-11.1c0-6.2,5-11.1,11.1-11.1c6.1,0,11.1,5,11.1,11.1C1217,995.7,1212,1000.7,1205.8,1000.7z
		 M1727.9,1243h-412.6v-39.2h181.1c4,10.1,13.8,17.2,25.2,17.2c15,0,27.1-12.2,27.1-27.1c0-15-12.2-27.1-27.1-27.1
		c-11.7,0-21.7,7.4-25.5,17.8h-180.8v-257h412.6V1243z M1510.6,1193.8c0-6.1,5-11.1,11.1-11.1c6.1,0,11.1,5,11.1,11.1
		c0,6.2-5,11.1-11.1,11.1C1515.6,1205,1510.6,1200,1510.6,1193.8z M1900.6,1133.6l-52.8-52.8V1014c10.3-3.8,17.6-13.8,17.6-25.4
		c0-15-12.2-27.1-27.1-27.1s-27.1,12.2-27.1,27.1c0,11.7,7.5,21.8,17.9,25.5v74.3l71.5,73.1v82.5H1776V927.5h124.6V1133.6z
		 M1838.3,999.7c-6.1,0-11.1-5-11.1-11.1c0-6.2,5-11.1,11.1-11.1s11.1,5,11.1,11.1C1849.4,994.7,1844.4,999.7,1838.3,999.7z"/>
</g>
</svg>
